<?xml version="1.0" encoding="utf-8"?>
<!-- Generator: Adobe Illustrator 28.0.0, SVG Export Plug-In . SVG Version: 6.00 Build 0)  -->
<svg version="1.1" id="Layer_1" xmlns="http://www.w3.org/2000/svg" xmlns:xlink="http://www.w3.org/1999/xlink" x="0px" y="0px"
	 viewBox="0 0 571 561" style="enable-background:new 0 0 571 561;" xml:space="preserve">
<style type="text/css">
	.st0{display:none;}
	.st1{display:inline;}
	.st2{opacity:0.4;}
	.st3{fill:#EFEFEF;}
	.st4{display:inline;fill:#F8F8F8;}
	.st5{display:inline;fill:url(#Combined-Shape_00000085243968939425102860000013947601167600432794_);}
	.st6{display:none;filter:url(#filter-4);}
	.st7{display:inline;fill-rule:evenodd;clip-rule:evenodd;}
	.st8{fill-rule:evenodd;clip-rule:evenodd;fill:#FFFFFF;}
	.st9{filter:url(#Adobe_OpacityMaskFilter);}
	
		.st10{mask:url(#mask-3_00000089546121152281359100000001184536188231465621_);fill-rule:evenodd;clip-rule:evenodd;fill:url(#Oval-3_00000002371504543958821090000004131213032149966229_);}
	.st11{filter:url(#Adobe_OpacityMaskFilter_00000075125212567012906280000003608909341438963390_);}
	
		.st12{display:none;mask:url(#mask-3_00000008841994778192990420000003342074702496909194_);fill-rule:evenodd;clip-rule:evenodd;fill:#FFFFFF;}
</style>
<filter  filterUnits="objectBoundingBox" height="240.6%" id="filter-4" width="240.6%" x="-70.3%" y="-50.2%">
	<feOffset  dx="0" dy="50" in="SourceAlpha" result="shadowOffsetOuter1"></feOffset>
	<feGaussianBlur  in="shadowOffsetOuter1" result="shadowBlurOuter1" stdDeviation="50"></feGaussianBlur>
	<feColorMatrix  in="shadowBlurOuter1" type="matrix" values="0 0 0 0 0   0 0 0 0 0   0 0 0 0 0  0 0 0 0.2 0"></feColorMatrix>
</filter>
<g id="Page-1">
	<g id="Influencers" transform="translate(-675.000000, -142.000000)">
		<g id="_x31_">
			<g id="Group-8" transform="translate(675.000000, 117.000000)">
				<g id="icon" transform="translate(0.000000, 25.000000)" class="st0">
					<g id="Group-13" transform="translate(0.000000, 222.000000)" class="st1">
						<g id="Group-15" transform="translate(310.887015, 257.601695)">
						</g>
						<g id="Group-16" transform="translate(313.765599, 0.000000)" class="st2">
							
								<g id="Group-15_00000077306974006543644910000017659971000538952090_" transform="translate(46.460029, 135.384165) rotate(-12.000000) translate(-46.460029, -135.384165) translate(40.460029, 21.884165)">
								<polygon id="Rectangle-path" class="st3" points="0.6,0.5 11.4,0.5 11.4,204.9 0.6,204.9 								"/>
								<polygon id="Rectangle-path_00000085967286193056291350000013186625395664062095_" class="st3" points="0.6,216 11.4,216 
									11.4,226.8 0.6,226.8 								"/>
							</g>
							
								<g id="Group-15-Copy" transform="translate(62.769336, 121.002955) rotate(-16.000000) translate(-62.769336, -121.002955) translate(56.769336, 7.502955)">
								<polygon id="Rectangle-path_00000042722367826363044710000000670088869182378935_" class="st3" points="0.6,0.5 11.4,0.5 
									11.4,204.9 0.6,204.9 								"/>
								<polygon id="Rectangle-path_00000078003093618092607440000015345479480642142860_" class="st3" points="0.6,216 11.4,216 
									11.4,226.8 0.6,226.8 								"/>
							</g>
							
								<g id="Group-15-Copy-2" transform="translate(21.812685, 113.768500) rotate(-8.000000) translate(-21.812685, -113.768500) translate(15.812685, 0.268500)">
								<polygon id="Rectangle-path_00000039816602900688708170000011270709557896275588_" class="st3" points="0.4,0.1 11.2,0.1 
									11.2,204.5 0.4,204.5 								"/>
								<polygon id="Rectangle-path_00000065768064232777438730000014049452466755136664_" class="st3" points="0.4,215.6 
									11.2,215.6 11.2,226.3 0.4,226.3 								"/>
							</g>
						</g>
						
							<g id="Group-16_00000017476633248169327410000009297051304775925938_" transform="translate(206.193929, 124.000000) scale(-1, 1) translate(-206.193929, -124.000000) translate(156.193929, 0.000000)" class="st2">
							
								<g id="Group-15_00000133526829558250097500000003668130660297926054_" transform="translate(46.460029, 135.384165) rotate(-12.000000) translate(-46.460029, -135.384165) translate(40.460029, 21.884165)">
								<polygon id="Rectangle-path_00000166643266397360511130000003735767088049881487_" class="st3" points="0.6,0.5 11.4,0.5 
									11.4,204.9 0.6,204.9 								"/>
								<polygon id="Rectangle-path_00000146490391133720457840000009770452143305527469_" class="st3" points="0.6,216 11.4,216 
									11.4,226.8 0.6,226.8 								"/>
							</g>
							
								<g id="Group-15-Copy_00000005232539410806765090000003296064855074848183_" transform="translate(62.769336, 121.002955) rotate(-16.000000) translate(-62.769336, -121.002955) translate(56.769336, 7.502955)">
								<polygon id="Rectangle-path_00000141443120753540483830000002413110632827968420_" class="st3" points="0.6,0.5 11.4,0.5 
									11.4,204.9 0.6,204.9 								"/>
								<polygon id="Rectangle-path_00000096055056563620534020000018218219999190172047_" class="st3" points="0.6,216 11.4,216 
									11.4,226.8 0.6,226.8 								"/>
							</g>
							
								<g id="Group-15-Copy-2_00000073719673607517510910000015839732290732113331_" transform="translate(21.812685, 113.768500) rotate(-8.000000) translate(-21.812685, -113.768500) translate(15.812685, 0.268500)">
								<polygon id="Rectangle-path_00000157991752754785960680000009522140133941759362_" class="st3" points="0.4,0.1 11.2,0.1 
									11.2,204.5 0.4,204.5 								"/>
								<polygon id="Rectangle-path_00000132054228377349917130000010276817126564399536_" class="st3" points="0.4,215.6 
									11.2,215.6 11.2,226.3 0.4,226.3 								"/>
							</g>
						</g>
						<g id="Group-14" transform="translate(0.000000, 208.762712)">
						</g>
						
							<g id="Group-14-Copy" transform="translate(493.197302, 273.881356) scale(-1, 1) translate(-493.197302, -273.881356) translate(417.394604, 208.762712)">
						</g>
					</g>
					<path id="Shape" class="st4" d="M145.5,157c30.6,0,55.5-24.9,55.5-55.5S176.1,46,145.5,46S90,70.9,90,101.5
						S114.9,157,145.5,157z M145.5,56.1c25,0,45.4,20.4,45.4,45.4s-20.4,45.4-45.4,45.4s-45.4-20.4-45.4-45.4S120.5,56.1,145.5,56.1
						z"/>
					
						<linearGradient id="Combined-Shape_00000041272390016646632150000014772693442696179856_" gradientUnits="userSpaceOnUse" x1="-19.465" y1="676.0529" x2="-19.465" y2="675.795" gradientTransform="matrix(571 0 0 -561 11400 379682)">
						<stop  offset="0" style="stop-color:#F4F4F4"/>
						<stop  offset="1" style="stop-color:#FFFFFF"/>
					</linearGradient>
					
						<path id="Combined-Shape" style="display:inline;fill:url(#Combined-Shape_00000041272390016646632150000014772693442696179856_);" d="
						M349.5,534c14.9,0,27,12.1,27,27l0,0h-10.8c0-8.9-7.3-16.2-16.2-16.2l0,0V534z M306,528.4v10.8c-11.9,0-21.6,9.7-21.6,21.6l0,0
						h-10.8C273.6,542.9,288.2,528.4,306,528.4L306,528.4z M422.4,430.6c14.3,0,26.4,9.3,30.7,22.1c18.8,0.4,35.4,11.5,43.1,28.5
						c11.6,2.9,21.9,10.1,28.7,20.2c25.6,1.3,46.1,22.5,46.1,48.5l0,0v10.8h-10.8v-10.8c0-20.8-17-37.8-37.8-37.8
						c-10.8,0-21.2,4.7-28.4,12.8l0,0l-8.1-7.1c6.9-7.8,16.1-13.1,26.1-15.3c-7.1-7.5-17-11.9-27.5-11.9c-20.9,0-37.8,17-37.8,37.8
						l0-0.2c3.3,6.6,5.2,14,5.2,21.8l0,0v10.8h-10.8v-10.8c0-20.8-17-37.8-37.8-37.8c-10.8,0-21.2,4.7-28.4,12.8l0,0l-8.1-7.1
						c6.9-7.8,16.1-13.1,26.1-15.3c-7.1-7.5-17-11.9-27.5-11.9c-20.9,0-37.8,17-37.8,37.8l0,0h-10.8c0-26.3,21.1-47.7,47.2-48.5
						c-7-10-18.4-16.3-31-16.3l0,0v-10.8c19.2,0,36.3,11.2,44.2,28.5c11.6,2.9,21.9,10.1,28.7,20.2c12.4,0.7,23.5,5.9,31.8,14.1
						c5.5-20.2,23.7-35.1,45.5-35.8c-7-10-18.4-16.3-31-16.3l0,0l0-0.5H452l0,0.5c-11.9,0-21.6,9.7-21.6,21.6v5.4h-10.8V485
						c0-14.4,9.5-26.7,22.6-30.9c-3.4-7.5-11-12.8-19.7-12.8V430.6z M148.6,430.6v10.8c-8.8,0-16.4,5.3-19.7,12.8
						c13.1,4.2,22.6,16.4,22.6,30.9l0,0v5.4h-10.8V485c0-11.9-9.7-21.6-21.6-21.6l0,0l0-0.5h-0.2l0,0.5c-12.6,0-24,6.2-31,16.3
						c21.2,0.6,39.1,14.9,45.1,34.3c8-7.3,18.6-12,30.1-12.6c6.6-9.9,16.8-17.3,28.7-20.2c7.9-17.3,25-28.5,44.2-28.5l0,0v10.8
						c-12.6,0-24,6.2-31,16.3c26.2,0.8,47.2,22.2,47.2,48.5l0,0h-10.8c0-20.8-17-37.8-37.8-37.8s-37.8,17-37.8,37.8l0,0H155
						c0-5.3,0.9-10.4,2.5-15.2c-9.1,2.1-17,7.4-22.3,14.8c0,0.2,0,0.3,0,0.5l-0.4,0c-4.3,6.1-6.8,13.6-6.8,21.6l0,0v10.8h-10.8
						v-10.8c0-9.2,2.6-17.8,7-25.1c-1.8-19.2-18-34.3-37.7-34.3c-10.5,0-20.4,4.4-27.5,11.9c10,2.2,19.2,7.5,26.1,15.3l-8.1,7.1
						c-7.2-8.1-17.5-12.8-28.4-12.8c-20.9,0-37.8,17-37.8,37.8v10.8H0v-10.8c0-25.9,20.4-47.1,46.1-48.5c6.8-10.1,17-17.3,28.7-20.2
						c7.8-17,24.3-28.1,43.1-28.5C122.2,439.8,134.3,430.6,148.6,430.6L148.6,430.6z M279.2,501.6v10.8h-10.8v-10.8H279.2z
						 M300.9,501.6v10.8h-10.8v-10.8H300.9z M322.5,480v10.8h-10.8V480H322.5z M257.6,480v10.8h-10.8V480H257.6z M300.9,264.2v226.6
						h-10.8V264.2H300.9z M279.2,264.2v226.6h-10.8V264.2H279.2z M322.5,264.2v204.7h-10.8V264.2H322.5z M257.6,264.2v204.7h-10.8
						V264.2H257.6z M480.1,300.2v8.8c7.3,0,13.3,5.9,13.3,13.2l0,0h-8.9c0-2.4-2-4.4-4.4-4.4l0,0h-8.9c-2.4,0-4.4,2-4.4,4.4
						c0,2.4,2,4.4,4.4,4.4l0,0h8.9c7.3,0,13.3,5.9,13.3,13.2s-6,13.2-13.3,13.2l0,0v8.8h-8.9v-8.8c-7.3,0-13.3-5.9-13.3-13.2l0,0
						h8.9c0,2.4,2,4.4,4.4,4.4l0,0h8.9c2.4,0,4.4-2,4.4-4.4s-2-4.4-4.4-4.4l0,0h-8.9c-7.3,0-13.3-5.9-13.3-13.2
						c0-7.3,6-13.2,13.3-13.2l0,0v-8.8H480.1z M115,240.7v5.2c4.4,0,7.9,3.5,7.9,7.8l0,0h-5.3c0-1.4-1.2-2.6-2.6-2.6l0,0h-5.3
						c-1.5,0-2.6,1.2-2.6,2.6c0,1.4,1.2,2.6,2.6,2.6l0,0h5.3c4.4,0,7.9,3.5,7.9,7.8s-3.6,7.8-7.9,7.8l0,0v5.2h-5.3v-5.2
						c-4.4,0-7.9-3.5-7.9-7.8l0,0h5.3c0,1.4,1.2,2.6,2.6,2.6l0,0h5.3c1.5,0,2.6-1.2,2.6-2.6s-1.2-2.6-2.6-2.6l0,0h-5.3
						c-4.4,0-7.9-3.5-7.9-7.8c0-4.3,3.6-7.8,7.9-7.8l0,0v-5.2H115z M150.8,70.4v8.9c7.3,0,13.3,6,13.3,13.3l0,0h-8.9
						c0-2.4-2-4.4-4.4-4.4l0,0H142c-2.4,0-4.4,2-4.4,4.4s2,4.4,4.4,4.4l0,0h8.9c7.3,0,13.3,6,13.3,13.3c0,7.3-6,13.3-13.3,13.3l0,0
						v8.9H142v-8.9c-7.3,0-13.3-6-13.3-13.3l0,0h8.9c0,2.4,2,4.4,4.4,4.4l0,0h8.9c2.4,0,4.4-2,4.4-4.4c0-2.4-2-4.4-4.4-4.4l0,0H142
						c-7.3,0-13.3-6-13.3-13.3s6-13.3,13.3-13.3l0,0v-8.9H150.8z M362.2,30.7v6.2c5.2,0,9.4,4.1,9.4,9.2l0,0h-6.2
						c0-1.7-1.4-3.1-3.1-3.1l0,0h-6.2c-1.7,0-3.1,1.4-3.1,3.1c0,1.7,1.4,3.1,3.1,3.1l0,0h6.2c5.2,0,9.4,4.1,9.4,9.2
						s-4.2,9.2-9.4,9.2l0,0v6.2h-6.2v-6.2c-5.2,0-9.4-4.1-9.4-9.2l0,0h6.2c0,1.7,1.4,3.1,3.1,3.1l0,0h6.2c1.7,0,3.1-1.4,3.1-3.1
						c0-1.7-1.4-3.1-3.1-3.1l0,0h-6.2c-5.2,0-9.4-4.1-9.4-9.2s4.2-9.2,9.4-9.2l0,0v-6.2H362.2z M467.2,0v4c3.4,0,6.1,2.7,6.1,6l0,0
						h-4.1c0-1.1-0.9-2-2-2l0,0h-4.1c-1.1,0-2,0.9-2,2s0.9,2,2,2l0,0h4.1c3.4,0,6.1,2.7,6.1,6s-2.7,6-6.1,6l0,0v4h-4.1v-4
						c-3.4,0-6.1-2.7-6.1-6l0,0h4.1c0,1.1,0.9,2,2,2l0,0h4.1c1.1,0,2-0.9,2-2s-0.9-2-2-2l0,0h-4.1c-3.4,0-6.1-2.7-6.1-6s2.7-6,6.1-6
						l0,0V0H467.2z"/>
				</g>
				<g id="app-icon" transform="translate(161.000000, 128.000000)">
					<g id="bg">
						<g class="st6">
							<path id="path-2_00000041272612561381406670000006828505750394391170_" class="st7" d="M13-103h223c93.3,0,169,75.7,169,169
								v223c0,93.3-75.7,169-169,169H13c-93.3,0-169-75.7-169-169V66C-156-27.3-80.3-103,13-103z"/>
						</g>
						<g>
							<path id="path-2_00000056391863283848134840000011092612149185234341_" class="st8" d="M13-103h223c93.3,0,169,75.7,169,169
								v223c0,93.3-75.7,169-169,169H13c-93.3,0-169-75.7-169-169V66C-156-27.3-80.3-103,13-103z"/>
						</g>
					</g>
					<defs>
						<filter id="Adobe_OpacityMaskFilter" filterUnits="userSpaceOnUse" x="-92.9" y="-39.9" width="434.8" height="434.8">
							<feColorMatrix  type="matrix" values="1 0 0 0 0  0 1 0 0 0  0 0 1 0 0  0 0 0 1 0"/>
						</filter>
					</defs>
					
						<mask maskUnits="userSpaceOnUse" x="-92.9" y="-39.9" width="434.8" height="434.8" id="mask-3_00000089546121152281359100000001184536188231465621_">
						<g class="st9">
							<path id="path-2_00000020376589463042707130000010662025026536379811_" class="st8" d="M13-103h223c93.3,0,169,75.7,169,169
								v223c0,93.3-75.7,169-169,169H13c-93.3,0-169-75.7-169-169V66C-156-27.3-80.3-103,13-103z"/>
						</g>
					</mask>
					
						<linearGradient id="Oval-3_00000085222570105774359650000009058235007796354722_" gradientUnits="userSpaceOnUse" x1="-179.8991" y1="573.7176" x2="-180.751" y2="571.8536" gradientTransform="matrix(193 0 0 -193 34941 110695)">
						<stop  offset="0" style="stop-color:#2AFF38"/>
						<stop  offset="1" style="stop-color:#00D948"/>
					</linearGradient>
					
						<circle id="Oval-3" style="mask:url(#mask-3_00000089546121152281359100000001184536188231465621_);fill-rule:evenodd;clip-rule:evenodd;fill:url(#Oval-3_00000085222570105774359650000009058235007796354722_);" cx="124.5" cy="177.5" r="217.4"/>
					<defs>
						
							<filter id="Adobe_OpacityMaskFilter_00000132788414745748540120000000961800194519467434_" filterUnits="userSpaceOnUse" x="62" y="72" width="125" height="112">
							<feColorMatrix  type="matrix" values="1 0 0 0 0  0 1 0 0 0  0 0 1 0 0  0 0 0 1 0"/>
						</filter>
					</defs>
					
						<mask maskUnits="userSpaceOnUse" x="62" y="72" width="125" height="112" id="mask-3_00000008841994778192990420000003342074702496909194_">
						<g style="filter:url(#Adobe_OpacityMaskFilter_00000132788414745748540120000000961800194519467434_);">
							<path id="path-2_00000070838853825164216430000016980927828866580902_" class="st8" d="M75,0h99c41.4,0,75,33.6,75,75v99
								c0,41.4-33.6,75-75,75H75c-41.4,0-75-33.6-75-75V75C0,33.6,33.6,0,75,0z"/>
						</g>
					</mask>
					<path id="Combined-Shape_00000005974236161518452660000003579304735423890574_" class="st12" d="M101.6,148.8v25.5
						c0,5.3,4.2,9.6,9.6,9.6c5.3,0,9.6-4.3,9.6-9.6l0-7.5c12.4,0,18.7,0,18.9,0c26.2,0,47.4-21.2,47.4-47.4S165.8,72,139.6,72
						c-0.2,0-9.3,0-27.4,0c-5.9,0-10.6,4.8-10.6,10.7l0,11.7h-30c-5.3,0-9.6,4.3-9.6,9.6s4.4,9.5,9.7,9.5h29.9v16.2H71.7
						c-5.3,0-9.7,4.2-9.7,9.5c0,5.3,4.4,9.6,9.7,9.6H101.6z"/>
				</g>
			</g>
		</g>
	</g>
</g>
</svg>
